<?xml version="1.0" encoding="UTF-8" standalone="no"?>
<!-- Created with Inkscape (http://www.inkscape.org/) -->

<svg
   xmlns:dc="http://purl.org/dc/elements/1.1/"
   xmlns:cc="http://creativecommons.org/ns#"
   xmlns:rdf="http://www.w3.org/1999/02/22-rdf-syntax-ns#"
   xmlns:svg="http://www.w3.org/2000/svg"
   xmlns="http://www.w3.org/2000/svg"
   xmlns:sodipodi="http://sodipodi.sourceforge.net/DTD/sodipodi-0.dtd"
   xmlns:inkscape="http://www.inkscape.org/namespaces/inkscape"
   width="260"
   height="260"
   id="svg2"
   version="1.1"
   inkscape:version="0.48.4 r9939"
   sodipodi:docname="p4disconnected_dark.svg"
   inkscape:export-filename="C:\p4\mca-userbranch\p4ic4idea\resources\icons\p4disconnected_dark.png"
   inkscape:export-xdpi="4.5"
   inkscape:export-ydpi="4.5">
  <defs
     id="defs4" />
  <sodipodi:namedview
     id="base"
     pagecolor="#ffffff"
     bordercolor="#666666"
     borderopacity="1.0"
     inkscape:pageopacity="0.0"
     inkscape:pageshadow="2"
     inkscape:zoom="1.4142136"
     inkscape:cx="120.30842"
     inkscape:cy="147.44108"
     inkscape:document-units="px"
     inkscape:current-layer="layer1"
     showgrid="false"
     inkscape:window-width="953"
     inkscape:window-height="639"
     inkscape:window-x="588"
     inkscape:window-y="67"
     inkscape:window-maximized="0" />
  <metadata
     id="metadata7">
    <rdf:RDF>
      <cc:Work
         rdf:about="">
        <dc:format>image/svg+xml</dc:format>
        <dc:type
           rdf:resource="http://purl.org/dc/dcmitype/StillImage" />
        <dc:title></dc:title>
      </cc:Work>
    </rdf:RDF>
  </metadata>
  <g
     inkscape:label="Layer 1"
     inkscape:groupmode="layer"
     id="layer1"
     transform="translate(0,-792.3622)">
    <text
       xml:space="preserve"
       style="font-size:240px;font-style:normal;font-variant:normal;font-weight:bold;font-stretch:normal;text-align:start;line-height:100%;letter-spacing:0px;word-spacing:0px;writing-mode:lr-tb;text-anchor:start;fill:#ab3437;fill-opacity:1;stroke:none;font-family:Sans;-inkscape-font-specification:Sans Bold"
       x="-17.460938"
       y="964.36218"
       id="text2985"
       sodipodi:linespacing="100%"><tspan
         sodipodi:role="line"
         x="-17.460938"
         y="964.36218"
         id="tspan2989">P</tspan></text>
    <text
       xml:space="preserve"
       style="font-size:240px;font-style:oblique;font-variant:normal;font-weight:bold;font-stretch:normal;text-align:start;line-height:125%;letter-spacing:0px;word-spacing:0px;writing-mode:lr-tb;text-anchor:start;fill:#ab3437;fill-opacity:1;stroke:none;font-family:Sans;-inkscape-font-specification:Sans Bold Oblique"
       x="126.4375"
       y="1052.3622"
       id="text2993"
       sodipodi:linespacing="125%"><tspan
         sodipodi:role="line"
         id="tspan2995"
         x="126.4375"
         y="1052.3622">4</tspan></text>
    <g
       id="g3000"
       transform="matrix(1.6631152,1.6631152,-1.6631152,1.6631152,1287.9093,-941.30184)"
       style="fill:#dcdcdc;fill-opacity:1">
      <g
         transform="matrix(1.5909903,-1.5909903,1.5909903,1.5909903,161.96369,948.35817)"
         id="g3817"
         style="fill:#dcdcdc;fill-opacity:1">
        <path
           style="fill:#dcdcdc;fill-opacity:1"
           inkscape:connector-curvature="0"
           d="M 32,8.828 29.172,6 23.586,11.586 20.414,8.414 26,2.828 23.172,0 17.586,5.586 14,2 l -2.707,2.707 16,16 L 30,18 26.414,14.414 32,8.828 z"
           id="path3807" />
        <path
           sodipodi:nodetypes="cccccccc"
           style="fill:#dcdcdc;fill-opacity:1"
           inkscape:connector-curvature="0"
           d="M 24.814,21.056 10.944,7.186 C 7.95,10.777 4.553,16.325 6.9,21.099 l -26.214352,26.214352 c -2.412844,2.771772 2.000856,5.725841 3.9995,3.9995 L 10.9,25.098 c 4.774,2.348 10.322,-1.049 13.913,-4.043 z"
           id="path3809" />
      </g>
      <path
         sodipodi:nodetypes="ccccc"
         style="fill:#dcdcdc;fill-opacity:1"
         inkscape:connector-curvature="0"
         d="m 187.04416,892.69833 0,-8.61362 50.91169,0 0,8.61362 c -46.33111,-0.54096 -23.58059,0 -50.91169,0 z"
         id="path3807-0" />
      <path
         sodipodi:nodetypes="cccccccc"
         style="fill:#dcdcdc;fill-opacity:1"
         inkscape:connector-curvature="0"
         d="m 234.56704,879.58538 -44.13408,0 c 0.94983,-10.47667 4.37205,-24.70807 15.70149,-28.56941 l 0,-83.41356 c 0.57105,-8.2487 12.2931,-5.9264 12.72633,0 l 0,83.41515 c 11.33103,3.85975 14.75325,18.09115 15.70307,28.56782 z"
         id="path3809-9" />
    </g>
  </g>
</svg>
